HIERARCHY
ROOT root
{
	OFFSET 0.000000 0.000000 0.000000
	CHANNELS 6 Xposition Yposition Zposition Zrotation Yrotation Xrotation
	JOINT lhip
	{
		OFFSET 0.058581 -0.082280 -0.017664
		CHANNELS 3 Zrotation Yrotation Xrotation
		JOINT lknee
		{
			OFFSET 0.043451 -0.386469 0.008037
			CHANNELS 3 Zrotation Yrotation Xrotation
			JOINT lankle
			{
				OFFSET -0.014790 -0.426874 -0.037428
				CHANNELS 3 Zrotation Yrotation Xrotation
				JOINT ltoe
				{
					OFFSET 0.041054 -0.060286 0.122042
					CHANNELS 3 Zrotation Yrotation Xrotation
					End Site
					{
						OFFSET 0.000000 0.000000 0.000000
					}
				}
			}
		}
	}
	JOINT rhip
	{
		OFFSET -0.060310 -0.090513 -0.013543
		CHANNELS 3 Zrotation Yrotation Xrotation
		JOINT rknee
		{
			OFFSET -0.043257 -0.383688 -0.004843
			CHANNELS 3 Zrotation Yrotation Xrotation
			JOINT rankle
			{
				OFFSET 0.019056 -0.420046 -0.034562
				CHANNELS 3 Zrotation Yrotation Xrotation
				JOINT rtoe
				{
					OFFSET -0.034840 -0.062106 0.130323
					CHANNELS 3 Zrotation Yrotation Xrotation
					End Site
					{
						OFFSET 0.000000 0.000000 0.000000
					}
				}
			}
		}
	}
	JOINT lowerback
	{
		OFFSET 0.004439 0.124404 -0.038385
		CHANNELS 3 Zrotation Yrotation Xrotation
		JOINT upperback
		{
			OFFSET 0.004488 0.137956 0.026820
			CHANNELS 3 Zrotation Yrotation Xrotation
			JOINT chest
			{
				OFFSET -0.002265 0.056032 0.002855
				CHANNELS 3 Zrotation Yrotation Xrotation
				JOINT lowerneck
				{
					OFFSET -0.013390 0.211636 -0.033468
					CHANNELS 3 Zrotation Yrotation Xrotation
					JOINT upperneck
					{
						OFFSET 0.010113 0.088937 0.050410
						CHANNELS 3 Zrotation Yrotation Xrotation
						End Site
						{
							OFFSET 0.000000 0.000000 0.000000
						}
					}
				}
				JOINT lclavicle
				{
					OFFSET 0.071702 0.114000 -0.018898
					CHANNELS 3 Zrotation Yrotation Xrotation
					JOINT lshoulder
					{
						OFFSET 0.122921 0.045205 -0.019046
						CHANNELS 3 Zrotation Yrotation Xrotation
						JOINT lelbow
						{
							OFFSET 0.255332 -0.015649 -0.022946
							CHANNELS 3 Zrotation Yrotation Xrotation
							JOINT lwrist
							{
								OFFSET 0.265709 0.012698 -0.007375
								CHANNELS 3 Zrotation Yrotation Xrotation
								End Site
								{
									OFFSET 0.000000 0.000000 0.000000
								}
							}
						}
					}
				}
				JOINT rclavicle
				{
					OFFSET -0.082954 0.112472 -0.023707
					CHANNELS 3 Zrotation Yrotation Xrotation
					JOINT rshoulder
					{
						OFFSET -0.113228 0.046853 -0.008472
						CHANNELS 3 Zrotation Yrotation Xrotation
						JOINT relbow
						{
							OFFSET -0.260127 -0.014369 -0.031269
							CHANNELS 3 Zrotation Yrotation Xrotation
							JOINT rwrist
							{
								OFFSET -0.269108 0.006794 -0.006027
								CHANNELS 3 Zrotation Yrotation Xrotation
								End Site
								{
									OFFSET 0.000000 0.000000 0.000000
								}
							}
						}
					}
				}
			}
		}
	}
}
MOTION
Frames: 8
Frame Time: 0.033333
0.120691 -1.111876 0.855936 -90.513527 -0.635225 97.670399 15.419050 10.808249 -44.414614 -6.791269 9.681314 49.542350 -1.481953 2.359694 -15.813054 0.000000 -0.000000 0.000000 -16.978945 -19.464064 -42.181402 -1.681396 -13.849236 58.730342 6.313630 -4.332421 -19.812393 0.000000 -0.000000 0.000000 1.328460 2.168637 50.746097 -1.669407 -1.243524 -10.381248 2.335606 -2.736729 0.133850 -7.509792 -1.931808 -24.045085 0.796087 1.391053 -4.855822 -37.049369 -15.662296 5.359243 -44.178567 -22.085801 5.858053 63.635589 -66.716712 -58.265302 26.592235 -11.234581 -35.060261 31.904226 18.637107 6.309609 35.648978 7.947637 4.521782 -47.497967 58.355162 -51.777400 -9.736405 19.067156 -28.551466 
0.119817 -1.119525 0.855512 -90.874209 -0.594071 97.869284 14.981024 10.160788 -44.828071 -5.514344 10.294272 50.709298 -1.108386 2.083278 -16.590299 0.000000 -0.000000 0.000000 -16.878266 -19.197924 -42.826837 -2.232098 -13.569296 59.405103 6.344314 -4.180619 -20.352776 0.000000 -0.000000 0.000000 1.401697 2.638154 50.905962 -1.530041 -2.183988 -10.155719 2.109449 -2.711792 -0.877520 -7.517945 -1.596606 -23.982755 0.992174 1.946976 -4.729960 -35.958695 -17.167669 5.419279 -43.993678 -23.289311 6.567075 68.106590 -64.594140 -64.084401 28.990686 -10.446241 -34.466720 31.538123 19.870105 6.480861 37.128595 9.182348 6.110646 -53.132085 56.627049 -58.425493 -10.181393 19.910673 -27.305164 
0.120288 -1.125716 0.853874 -90.120977 -0.284294 98.193536 14.014320 9.348718 -46.308165 -4.174892 9.617473 52.148000 -0.767299 2.355537 -17.031628 0.000000 -0.000000 0.000000 -16.979794 -19.657220 -42.976138 -2.447283 -13.762265 59.621583 6.601880 -4.152121 -20.151136 0.000000 -0.000000 0.000000 2.228340 2.010070 50.714478 -1.249523 -3.259298 -10.198733 1.828180 -2.760927 -0.999024 -7.543611 -1.615711 -24.519213 1.123010 2.349134 -4.427827 -35.244838 -18.797833 5.214900 -42.481313 -24.088116 5.568285 66.378569 -63.460489 -63.103423 28.729909 -11.552525 -32.186289 30.334029 21.273416 6.172546 38.429551 11.081207 5.974908 -54.297467 54.962276 -60.006326 -9.749128 20.752913 -26.287167 
0.119123 -1.130981 0.852542 -91.283235 0.606321 97.933075 14.861124 10.121947 -46.106273 -4.400755 9.790418 53.270141 -0.296257 2.802827 -17.688111 0.000000 -0.000000 0.000000 -15.747893 -18.706596 -43.530826 -2.771838 -12.672806 59.868986 6.375174 -4.332581 -19.868286 0.000000 -0.000000 0.000000 1.848786 2.105078 51.379290 -1.330592 -3.430617 -10.970452 1.314230 -2.659532 -0.606292 -7.342972 -0.037460 -26.361762 2.030569 1.524951 -3.738161 -32.971068 -20.474794 3.538015 -38.817821 -23.679129 3.588293 60.396277 -64.858707 -57.755339 29.952499 -11.177031 -31.603755 30.639846 23.925961 5.486809 39.216081 13.331263 5.491186 -53.283211 52.583645 -58.878629 -9.317765 20.663354 -25.287832 
0.117750 -1.133439 0.851323 -91.478982 0.681268 97.995220 14.730665 10.257981 -46.247944 -4.241478 9.750357 53.538468 -0.397589 2.720398 -17.836113 0.000000 -0.000000 0.000000 -15.808112 -18.527814 -43.642943 -2.918069 -12.629719 59.942494 6.445548 -4.291898 -19.852962 0.000000 -0.000000 0.000000 1.541721 2.146795 51.256547 -1.375610 -3.318726 -10.948046 1.424026 -2.573952 -0.912338 -7.272295 -0.046824 -25.952122 2.087608 1.489426 -4.204633 -33.010624 -20.643155 3.693513 -38.014967 -23.638887 3.535313 59.695818 -64.761611 -57.683678 30.113604 -11.520913 -30.664344 30.631427 24.040909 5.480039 39.171116 13.526667 5.690441 -53.142659 52.445720 -59.304103 -9.934341 20.587567 -25.072144 
0.116264 -1.137972 0.850646 -92.152008 0.922101 97.479246 14.794583 10.585536 -45.809188 -4.407576 9.711907 54.346444 -0.401419 3.224365 -18.473990 0.000000 -0.000000 0.000000 -15.699785 -18.173567 -43.393799 -3.318756 -12.220223 60.074361 6.628082 -3.835623 -19.710380 0.000000 -0.000000 0.000000 0.944819 2.319961 51.911196 -1.634126 -3.119777 -11.417535 1.702420 -2.544540 -0.773405 -7.177555 0.433520 -26.278364 2.638955 0.681367 -4.527579 -31.803630 -21.849225 3.172183 -35.582833 -22.458823 2.057863 56.134785 -65.633953 -54.530321 30.116711 -12.445254 -29.065581 30.360786 25.677181 4.902956 39.443110 13.834305 4.952311 -52.331603 51.826647 -58.715670 -10.563833 20.444045 -25.011052 
0.116325 -1.144598 0.847968 -91.852828 1.350855 97.782915 14.863483 9.646865 -47.114127 -3.880938 9.848816 55.934805 0.032349 3.798495 -18.970226 0.000000 -0.000000 0.000000 -15.834597 -18.571515 -43.641185 -2.723453 -12.097138 60.115833 6.794005 -4.131463 -19.436030 0.000000 -0.000000 0.000000 2.119715 2.306188 51.258435 -1.116407 -3.939113 -11.112632 0.990187 -2.666213 -0.424435 -6.828586 0.605835 -27.465762 2.394999 0.098391 -4.413956 -30.501538 -22.293271 2.511855 -33.802093 -22.218788 1.995073 53.969695 -65.855267 -51.676174 28.870101 -13.921999 -27.216466 29.319637 25.902952 3.741541 40.167680 15.576085 5.378898 -51.650309 50.690334 -59.007820 -9.261345 21.281385 -24.276082 
0.114610 -1.147434 0.847378 -92.033510 1.301762 97.807600 14.590953 9.773467 -47.138617 -3.758127 9.812351 56.097958 -0.053635 3.821585 -19.078212 0.000000 -0.000000 0.000000 -16.011705 -18.465654 -43.709844 -2.770584 -12.028902 60.149733 6.847325 -4.132020 -19.448474 0.000000 -0.000000 0.000000 1.661433 2.431475 51.185050 -1.150965 -3.783362 -11.119984 1.181327 -2.545329 -0.620440 -6.789011 0.496641 -27.091923 2.402012 0.070553 -4.811282 -30.526447 -22.262602 2.637459 -33.343594 -22.263417 2.179002 53.702244 -65.993295 -51.893827 29.121827 -14.026809 -26.949228 29.342632 25.764467 3.709556 40.028299 15.609776 5.602513 -51.586943 50.859903 -59.345444 -9.740590 21.273364 -24.137711 
